<svg height="512" viewBox="0 0 512 512" width="512" xmlns="http://www.w3.org/2000/svg"><g id="Hamburger"><path d="m434.1824 323.2642c0 31.2859 0 130.5132-178.1824 130.5132s-178.1824-99.2274-178.1824-130.5132 79.775-56.648 178.1824-56.648 178.1824 25.3622 178.1824 56.648z" fill="#ff9200"/><path d="m191.083 362.24c-26.6417-39.293-61.9318-59.6858-85.1059-69.551-17.8215 8.82-28.1595 19.3138-28.1595 30.5755 0 31.2858 0 130.5132 178.1824 130.5132q12.1377 0 23.1848-.6008s8.7391-.5074 12.8908-.9057 17.3746-1.9982 17.3746-1.9982l-21.9973-6.1947a80.618 80.618 0 0 1 -14.2689-5.5072c-30.5087-15.2869-58.0946-40.925-82.101-76.3311z" fill="#ff8b00"/><path d="m256 453.7774q10.6159 0 20.3972-.46c-35.2543-15.3334-67.5456-43.4877-95.2464-84.3431-27.8572-41.0859-65.4065-60.2081-88.2356-68.5556-9.7 6.9886-15.0976 14.7163-15.0976 22.8459 0 31.2854 0 130.5128 178.1824 130.5128z" fill="#f9aa13"/><ellipse cx="256" cy="323.153" fill="#ff7000" rx="178.182" ry="56.537"/><path d="m267.28 362.9-27.11 11.03a75.5363 75.5363 0 0 0 -30.95 23.34l-12.95 16.47a17.5677 17.5677 0 0 1 -29.09-2.19l-16.13-28.45a75.7893 75.7893 0 0 0 -21.2-23.8l-24.51-17.92c38.02 13.25 92.79 21.57 153.68 21.57q4.155 0 8.26-.05z" fill="#f9d153"/><path d="m240.1705 373.9337a75.4747 75.4747 0 0 0 -10.2995 5.15q12.4147.5788 25.3423.6036l34.8746-14.1955a10.9629 10.9629 0 0 0 4.5853-3.5119q-13.4171.7372-27.383.9152z" fill="#f05d00"/><path d="m94.9985 337.549a10.9962 10.9962 0 0 0 2.2961 11.3325c9.9954 6.195 23.4935 11.7259 39.6564 16.3344a75.6405 75.6405 0 0 0 -7.0981-5.9154l-24.5369-17.937q-5.3745-1.8748-10.2907-3.879c-.0083.0219-.0186.0425-.0268.0645z" fill="#f05d00"/><path d="m217.8672 404.0616a64.7512 64.7512 0 0 1 26.45-19.94l10.8957-4.435q-12.9083-.0179-25.3423-.6036a75.6947 75.6947 0 0 0 -20.6529 18.1817l-3.0217 3.8456q3.7689 4.1827 7.6218 8.1038z" fill="#ff6400"/><path d="m182.4836 420.45a17.4664 17.4664 0 0 1 -15.2988-8.9l-16.1336-28.4459a75.8451 75.8451 0 0 0 -14.1-17.8882c-16.1629-4.6085-29.661-10.1394-39.6564-16.3344a10.9923 10.9923 0 0 0 1.53 1.3622l24.537 17.9371a64.385 64.385 0 0 1 18.1217 20.35l16.1336 28.4458a28.5639 28.5639 0 0 0 47.3072 3.5568l8.8944-11.319q-3.8532-3.9185-7.6218-8.1038l-9.9218 12.6264a17.41 17.41 0 0 1 -13.7915 6.713z" fill="#ff9200"/><path d="m431.8425 260.0985c-37.3068-17.696-100.7837-29.3461-172.8247-29.3461s-135.5178 11.6501-172.8248 29.3461h-35.0868v36.7535c0 36.5058 93.0852 66.1 207.9116 66.1s207.9116-29.5938 207.9116-66.1v-36.7535z" fill="#b4513a"/><ellipse cx="259.018" cy="260.099" fill="#97422e" rx="207.912" ry="66.1"/><path d="m259.0178 326.1981a602.2715 602.2715 0 0 1 -89.0524-6.357 337.1019 337.1019 0 0 1 -68.644 20.0859c38.1294 14.0961 94.6309 23.0245 157.6964 23.0245 114.8264 0 207.9116-29.5938 207.9116-66.1v-36.753c0 36.5058-93.0852 66.0996-207.9116 66.0996z" fill="#b44031"/><path d="m466.9294 260.0985h-35.0869c-30.992-14.7007-80.0528-25.2213-137.0722-28.3643-40.7578 44.7671-85.1825 71.8006-124.8049 88.1069a602.2715 602.2715 0 0 0 89.0524 6.357c114.8264 0 207.9116-29.5938 207.9116-66.0996z" fill="#97260d"/><path d="m437.81 280.29-22.53 18.5a94.8219 94.8219 0 0 0 -24.89 31.42l-14.04 28.55a18.28 18.28 0 0 1 -31.17 2.71l-10.57-14.48a94.3345 94.3345 0 0 0 -44.36-33.23l-33.53-12.04c19.09 0 32.27-6.03 40.74-12.16a19.8263 19.8263 0 0 1 23.39.31c7.44 5.46 19.67 10.78 39.45 11.85 26.01 1.39 38.95-7.95 45.14-15.59a20.0273 20.0273 0 0 1 18.31-7.1c4.95.67 9.63 1.08 14.06 1.26z" fill="#f9d153"/><path d="m423.75 279.03a20.0273 20.0273 0 0 0 -18.31 7.1c-6.19 7.64-19.13 16.98-45.14 15.59-19.78-1.07-32.01-6.39-39.45-11.85a19.8263 19.8263 0 0 0 -23.39-.31c-8.47 6.13-21.65 12.16-40.74 12.16-19.43 0-33.09-6.24-41.9-12.47a20.0778 20.0778 0 0 0 -23.55.53c-7.43 5.49-19.68 10.87-39.57 11.94-26.01 1.39-38.95-7.95-45.14-15.59a20.0273 20.0273 0 0 0 -18.31-7.1c-91.99 12.45-94.21-63.35-58.83-66.86a62.8915 62.8915 0 0 0 18.57-4.74c.01 0 10.52-5.75 3.62-15.36-9.35-16.12-1.76-43.55 36.57-43.16a141.4769 141.4769 0 0 0 -7.34 42.59c0 31.29 79.77 56.65 178.18 56.65s178.18-25.36 178.18-56.65a141.3836 141.3836 0 0 0 -7.28-42.4c32.85 2.53 39.08 27.77 30.27 42.97-5.92 8.25.97 13.64 3.05 15.01a62.4938 62.4938 0 0 0 19.34 5.09c35.38 3.51 33.16 79.31-58.83 66.86z" fill="#6dcc82"/><path d="m340.97 238.9v9.5c0 14.3-36.69 25.9-81.95 25.9s-81.95-11.6-81.95-25.9v-9.5c0 14.31 36.69 25.91 81.95 25.91s81.95-11.6 81.95-25.91z" fill="#fff1c6"/><ellipse cx="259.018" cy="238.905" fill="#fffcf2" rx="81.948" ry="25.903"/><path d="m224.06 229.64v9.5c0 14.3-31.22 25.9-69.73 25.9s-69.73-11.6-69.73-25.9v-9.5c0 14.31 31.22 25.91 69.73 25.91s69.73-11.6 69.73-25.91z" fill="#ff4a45"/><ellipse cx="154.331" cy="229.644" fill="#ff6965" rx="69.733" ry="25.903"/><path d="m442.728 224.0622c-1.3131-4.9873-4.7992-10.9028-12.94-16.356a54.6458 54.6458 0 0 1 -8.8485 7.4613c6.5778 3.7043 10.6667 8.0724 11.3749 12.7763h.1185v10.9609c0 14.3058-31.2206 25.9029-69.7331 25.9029a169.9049 169.9049 0 0 1 -33.304-3.14c-14.3083 7.5649-40.4667 12.6324-70.378 12.6324-29.8951 0-56.0417-5.0619-70.355-12.62a168.6225 168.6225 0 0 1 -34.3317 3.36c-38.5126 0-69.7331-11.5972-69.7331-25.9029v-10.9612h.1185c.7343-4.8778 5.1158-9.3912 12.1265-13.181a53.6765 53.6765 0 0 1 -8.8441-7.555c-8.6854 5.5892-12.3433 11.7148-13.6965 16.8544a10.9754 10.9754 0 0 0 -.7044 3.8816v10.9609c0 8.3838 4.7873 20.1559 27.594 28.6277 14.366 5.3363 33.2378 8.2752 53.1391 8.2752a184.6017 184.6017 0 0 0 32.8314-2.8548c16.8091 7.6244 43.2188 12.1151 71.8553 12.1151 28.6779 0 55.1187-4.5034 71.9248-12.147a186.01 186.01 0 0 0 31.7568 2.6546c19.9013 0 38.7731-2.9389 53.139-8.2751 22.8068-8.4718 27.5941-20.244 27.5941-28.6278v-10.9609a10.9763 10.9763 0 0 0 -.7045-3.8816z" fill="#49b464"/><path d="m290.25 313.76-33.53-12.04a82.8592 82.8592 0 0 1 -10.99-.71 11.4 11.4 0 0 0 .06 2.02 11.0053 11.0053 0 0 0 7.21 9.04l33.53 12.04c1.1814.4238 2.3462.8813 3.5023 1.3553q10.5591-.502 20.7547-1.3334a94.11 94.11 0 0 0 -20.537-10.3719z" fill="#74260d"/><path d="m451.5 280.11a118.3144 118.3144 0 0 1 -13.69.18l-22.53 18.5a94.7247 94.7247 0 0 0 -8.3457 7.7547 181.9231 181.9231 0 0 0 33.3767-14.0722l6.679-5.4825a13.53 13.53 0 0 0 4.51-6.88z" fill="#74260d"/><path d="m376.35 358.76a18.2841 18.2841 0 0 1 -31.17 2.71l-2.9429-4.0315q-6.1307.8523-12.4582 1.5834l6.5111 8.9281a29.2913 29.2913 0 0 0 49.94-4.34l8.1523-16.5894q-6.7449 1.8413-13.9793 3.4976z" fill="#f05d00"/><path d="m334.61 346.99a94.4337 94.4337 0 0 0 -23.823-22.8581q-10.1851.83-20.7547 1.3334a83.1234 83.1234 0 0 1 35.6977 28.0047l4.0489 5.5519q6.3288-.7283 12.4582-1.5834z" fill="#97260d"/><path d="m422.26 307.29 18.051-14.8175a181.9231 181.9231 0 0 1 -33.3767 14.0722 94.8323 94.8323 0 0 0 -16.5443 23.6653l-9.987 20.3082q7.2271-1.6553 13.9793-3.4976l5.8777-11.9606a83.3082 83.3082 0 0 1 22-27.77z" fill="#97260d"/><path d="m432.43 229.41v9.49c0 14.31-31.22 25.91-69.73 25.91s-69.73-11.6-69.73-25.91v-9.49c0 14.31 31.22 25.91 69.73 25.91s69.73-11.6 69.73-25.91z" fill="#ff4a45"/><ellipse cx="362.699" cy="229.412" fill="#ff6965" rx="69.733" ry="25.903"/><ellipse cx="362.699" cy="229.412" fill="#ff6965" rx="69.733" ry="25.903"/><path d="m437.2 191.5c0 31.2858-79.775 56.648-178.1824 56.648s-178.1822-25.3622-178.1822-56.648 17.5393-143.97 178.1824-143.97 178.1822 112.6841 178.1822 143.97z" fill="#fdbb29"/><path d="m259.0178 47.53a274.4941 274.4941 0 0 0 -55.2764 5.221c-18.777 14.8625-29.5584 32.177-29.5584 50.6664 0 55.2793 96.2607 100.0921 215.0042 100.0921 15.565 0 30.7381-.777 45.3644-2.24a20.209 20.209 0 0 0 2.6484-9.7695c0-31.2859-17.5391-143.97-178.1822-143.97z" fill="#f9a213"/><path d="m203.74 52.75c-18.05 14.28-28.71 30.83-29.51 48.51-17.48-2.62-32.98-7.52-45.11-13.99 17.76-15.16 41.9-27.81 74.62-34.52z" fill="#ffdc6d"/><path d="m305.69 52.75c0 27.98-45.64 50.67-101.95 50.67a199.5075 199.5075 0 0 1 -29.51-2.16c.8-17.68 11.46-34.23 29.51-48.51.16-.03.33-.07.5-.11a275.1057 275.1057 0 0 1 54.78-5.11 285.4 285.4 0 0 1 46.62 3.61c.03.54.05 1.07.05 1.61z" fill="#f9cc40"/><path d="m259.0178 235.9689c-94.597 0-171.9624-23.4373-177.813-53.0428-.2644 3.279-.37 6.1688-.37 8.5739 0 31.2858 79.7751 56.648 178.1825 56.648s178.1827-25.3622 178.1827-56.648c0-2.4051-.1051-5.2949-.37-8.5739-5.85 29.6055-83.2153 53.0428-177.8122 53.0428z" fill="#ff8e00"/><path d="m142.038 121.15c.0423-.0543-.1445.0867-.24.1493-.108.07-.2564.1912-.3833.2841-.2605.1887-.5394.421-.8152.6425-.5507.4475-1.1149.9337-1.6676 1.4345-1.1085 1.0066-2.2133 2.07-3.27 3.2a78.2038 78.2038 0 0 0 -6.0337 7.2125 86.4636 86.4636 0 0 0 -5.218 8.0321c-.8447 1.3722-1.535 2.83-2.3091 4.2525-.7347 1.4414-1.3911 2.9248-2.0974 4.3928l-.159.33a5.4982 5.4982 0 0 1 -10.2016-4.0262c.5406-1.7273 1.0387-3.477 1.6269-5.2.629-1.707 1.1812-3.4529 1.9043-5.1346l1.0392-2.5466 1.1428-2.51c.74-1.6879 1.6282-3.3091 2.4651-4.9629a92.98 92.98 0 0 1 5.9042-9.5375c1.0845-1.55 2.2526-3.0607 3.4887-4.5572.6207-.75 1.26-1.4873 1.9424-2.2312.3437-.3715.6774-.74 1.0584-1.12.1926-.193.3544-.368.5736-.5755.23-.2164.3633-.3607.7391-.6846a8.4192 8.4192 0 1 1 10.51 13.1556z" fill="#fff"/><circle cx="106.233" cy="173.516" fill="#fff" r="8.591"/><g fill="#ffdd72"><ellipse cx="221.321" cy="129.635" rx="4.369" ry="13.28" transform="matrix(.5 -.866 .866 .5 -1.607 256.488)"/><ellipse cx="361.32" cy="124.87" rx="4.369" ry="13.28" transform="matrix(.5 -.866 .866 .5 72.519 375.347)"/><ellipse cx="298.24" cy="108.495" rx="13.28" ry="4.369" transform="matrix(.636 -.772 .772 .636 24.881 269.72)"/></g><ellipse cx="294.673" cy="163.279" fill="#fff1c4" rx="4.431" ry="13.47" transform="matrix(.5 -.866 .866 .5 5.933 336.834)"/><ellipse cx="166.43" cy="158.211" fill="#fff1c4" rx="13.47" ry="4.431" transform="matrix(.866 -.5 .5 .866 -56.808 104.411)"/><ellipse cx="238.301" cy="77.005" fill="#fff1c4" rx="13.47" ry="4.431" transform="matrix(.866 -.5 .5 .866 -6.576 129.467)"/></g></svg>