<svg xmlns="http://www.w3.org/2000/svg" version="1.1" xmlns:xlink="http://www.w3.org/1999/xlink" width="512" height="512" x="0" y="0" viewBox="0 0 24 24" style="enable-background:new 0 0 512 512" xml:space="preserve"><g><g fill="#000" fill-rule="evenodd" clip-rule="evenodd"><path d="M10.236 5.5a1.5 1.5 0 0 0-1.342.83l-.394.788A2.5 2.5 0 0 1 6.264 8.5H5A1.5 1.5 0 0 0 3.5 10v9A1.5 1.5 0 0 0 5 20.5h14a1.5 1.5 0 0 0 1.5-1.5v-8.5h1V19a2.5 2.5 0 0 1-2.5 2.5H5A2.5 2.5 0 0 1 2.5 19v-9A2.5 2.5 0 0 1 5 7.5h1.264a1.5 1.5 0 0 0 1.342-.83L8 5.883A2.5 2.5 0 0 1 10.236 4.5H12.5v1z" fill="#009688" opacity="1" data-original="#000000"></path><path d="M12 10.5a3.5 3.5 0 1 0 0 7 3.5 3.5 0 0 0 0-7zM7.5 14a4.5 4.5 0 1 1 9 0 4.5 4.5 0 0 1-9 0zM16.557 7.9l1.597 1.596-.707.708-2.45-2.45a.5.5 0 0 1 .353-.854H22v1zM19.554 2.146l2.45 2.45a.5.5 0 0 1-.354.854H15v-1h5.443l-1.597-1.596z" fill="#009688" opacity="1" data-original="#000000"></path></g></g></svg>