<svg xmlns="http://www.w3.org/2000/svg" version="1.1" xmlns:xlink="http://www.w3.org/1999/xlink" width="512" height="512" x="0" y="0" viewBox="0 0 64 64" style="enable-background:new 0 0 512 512" xml:space="preserve"><g><circle cx="34" cy="32" r="12" fill="#009688" opacity="1" data-original="#000000"></circle><path d="M34 14a18 18 0 1 0 18 18 18.02 18.02 0 0 0-18-18zm0 32a14 14 0 1 1 14-14 14.016 14.016 0 0 1-14 14zM12 13a1 1 0 0 0-1 1v14H9V14a1 1 0 0 0-2 0v14H5V14a1 1 0 0 0-2 0v16.256A3.355 3.355 0 0 0 4.499 33a3.258 3.258 0 0 1 1.398 2.86l-.722 12.98a2.944 2.944 0 0 0 2.7 3.157 2.838 2.838 0 0 0 2.959-2.993l-.74-13.304a3.132 3.132 0 0 1 1.471-2.744 3.258 3.258 0 0 0 1.435-2.7V14a1 1 0 0 0-1-1zM60.146 32h-4l-.85 17.004a2.854 2.854 0 1 0 5.7 0zM60.146 30V13.408a1.008 1.008 0 0 0-1.435-.906A8.249 8.249 0 0 0 54.146 22l2 8z" fill="#009688" opacity="1" data-original="#000000"></path></g></svg>