<svg xmlns="http://www.w3.org/2000/svg" version="1.1" xmlns:xlink="http://www.w3.org/1999/xlink" width="512" height="512" x="0" y="0" viewBox="0 0 512 512" style="enable-background:new 0 0 512 512" xml:space="preserve" class=""><g><path d="M415.887 279.285c0-89.48-72.848-161.978-161.978-161.978-42.6 0-82.723 17.501-107.98 41.355-34.442 30.865-53.997 74.505-53.997 120.624 0 45.333 18.966 89.231 53.997 120.624 30.311 26.944 67.916 41.355 107.98 41.355 88.37-.003 161.978-71.723 161.978-161.98z" style="" fill="#e4eaf8" data-original="#e4eaf8" class=""></path><path d="M253.909 172.842c-58.691 0-106.442 47.75-106.442 106.443s47.75 106.443 106.442 106.443c58.693 0 106.443-47.75 106.443-106.443s-47.75-106.443-106.443-106.443z" style="" fill="#d8dce5" data-original="#d8dce5" class=""></path><path d="M165.93 399.908c-71.949-64.476-72.042-176.688 0-241.247 23.291-21.997 59.225-38.579 98.085-41.03a163.46 163.46 0 0 0-10.106-.325c-42.6 0-82.723 17.501-107.98 41.355-71.949 64.476-72.042 176.688 0 241.246 30.311 26.944 67.916 41.355 107.98 41.355 3.33 0 6.636-.114 9.923-.315-36.275-2.213-70.147-16.368-97.902-41.039z" style="" fill="#d8dce5" data-original="#d8dce5" class=""></path><path d="M167.469 279.285c0-55.32 42.422-100.911 96.441-105.97a107.348 107.348 0 0 0-10.001-.473c-58.692 0-106.442 47.75-106.442 106.443s47.75 106.443 106.442 106.443c3.373 0 6.707-.165 10.001-.473-54.019-5.059-96.441-50.65-96.441-105.97z" style="" fill="#c3c8d1" data-original="#c3c8d1" class=""></path><path d="M118.985 77.998C93.913 71.28 64.831 98.514 54.03 138.825c-4.657 17.383-4.044 30.219.17 39.736 8.37 18.902 9.283 40.278 3.932 60.246L8.529 423.932c-2.453 9.154 2.98 18.563 12.134 21.016 9.154 2.453 18.563-2.979 21.017-12.134L91.283 247.69c5.35-19.967 16.828-38.024 33.527-50.209 30.347-22.142 35.543-108.398-5.825-119.483z" style="" fill="#ff5252" data-original="#ffc850" class="" opacity="1"></path><path d="m28.529 423.932 49.604-185.124c5.35-19.967 4.438-41.344-3.932-60.246-4.214-9.517-4.827-22.353-.17-39.736 8.273-30.875 27.27-54.057 46.975-60.21a32.007 32.007 0 0 0-2.021-.617C93.913 71.28 64.831 98.514 54.03 138.825c-4.657 17.383-4.044 30.219.17 39.736 8.37 18.902 9.282 40.278 3.932 60.246L8.529 423.932c-2.453 9.154 2.98 18.563 12.134 21.016 5.17 1.385 10.42.253 14.453-2.641-5.638-4.045-8.488-11.279-6.587-18.375z" style="" fill="#ff5252" data-original="#f9b428" class="" opacity="1"></path><path d="m459.932 157.463-83.495 22.373 7.354 27.444c1.983 7.4 7.281 13.692 14.956 16.462 11.269 4.067 19.968 13.184 23.07 24.757l49.265 183.858c2.391 8.925 11.308 14.766 20.335 12.797 9.639-2.102 15.463-11.792 12.939-21.212l-48.919-182.568c-3.178-11.861-1.014-24.858 7.548-35.234 4.792-5.807 6.336-13.644 4.387-20.917l-7.44-27.76z" style="" fill="#ff5252" data-original="#ffc850" class="" opacity="1"></path><path d="m491.972 432.357-49.265-183.858c-3.101-11.572-11.801-20.689-23.07-24.757-7.676-2.77-12.973-9.063-14.955-16.462l-8.933-32.618-19.312 5.174 7.354 27.444c1.983 7.4 7.281 13.692 14.956 16.462 11.269 4.067 19.968 13.184 23.07 24.757l49.265 183.858c2.391 8.925 11.308 14.766 20.335 12.797a17.116 17.116 0 0 0 6.906-3.249 17.943 17.943 0 0 1-6.351-9.548z" style="" fill="#ff5252" data-original="#f9b428" class="" opacity="1"></path><path d="M272.209 166.73a7.494 7.494 0 0 0-8.629 6.169 7.501 7.501 0 0 0 6.169 8.629c47.901 7.959 82.67 49.005 82.67 97.598 0 54.557-44.385 98.942-98.943 98.942-54.556 0-98.941-44.385-98.941-98.942 0-48.594 34.768-89.639 82.67-97.598a7.5 7.5 0 0 0 6.169-8.629 7.5 7.5 0 0 0-8.629-6.169c-26.29 4.367-50.382 17.999-67.836 38.384-63.121 73.715-10.42 187.955 86.566 187.955 62.829 0 113.944-51.114 113.944-113.943.002-56.295-41.143-103.413-95.21-112.396z" fill="#000000" opacity="1" data-original="#000000" class=""></path><path d="m511.167 421.843-34.071-127.156a7.497 7.497 0 0 0-9.187-5.303 7.5 7.5 0 0 0-5.303 9.187l34.071 127.155a9.583 9.583 0 0 1-1.082 7.528c-4.494 7.375-15.428 5.49-17.703-2.996L428.628 246.4c-2.672-9.972-8.876-18.502-17.037-24.266-9.347-6.599-17.929-5.545-20.987-16.953l-5.411-20.199 69.005-18.489 5.497 20.515c1.349 5.036.254 10.346-2.929 14.202-9.713 11.771-12.996 27.061-9.007 41.949l5.469 20.408a7.498 7.498 0 0 0 9.187 5.303 7.5 7.5 0 0 0 5.303-9.187l-5.469-20.408c-2.717-10.143-.498-20.536 6.087-28.519 6.264-7.59 8.45-17.919 5.848-27.632-.002-.008.002.008 0 0l-31.727-118.4a7.499 7.499 0 0 0-9.187-5.303 7.5 7.5 0 0 0-5.303 9.187l22.347 83.395-13.343 3.575-22.346-83.395a7.496 7.496 0 0 0-9.187-5.303 7.5 7.5 0 0 0-5.303 9.187l22.346 83.395-13.343 3.575-22.346-83.397a7.498 7.498 0 0 0-9.187-5.303 7.5 7.5 0 0 0-5.303 9.187l22.346 83.394-11.591 3.105a173.048 173.048 0 0 0-2.726-3.167l-21.372-79.76a7.498 7.498 0 0 0-9.187-5.303 7.5 7.5 0 0 0-5.303 9.187l14.973 55.882c-56.803-45.844-140.551-51.158-203.844-6.029 4.077-69.851-48.341-93.327-86.036-49.281-19.796 23.132-34.087 64.076-22.656 89.889 7.373 16.653 8.633 36.281 3.545 55.269L.851 421.832a24.498 24.498 0 0 0 2.463 18.712c10.908 18.889 39.478 15.316 45.176-5.946l36.496-136.207c.117.996.222 1.992.356 2.989 7.292 54.039 40.619 101.326 87.436 126.827 110.612 60.247 247.271-18.593 250.128-145.204l40.497 151.136c5.745 21.442 33.756 25.383 45.003 6.916a24.762 24.762 0 0 0 2.761-19.212zm-477.166 8.872c-2.236 8.342-13.43 9.718-17.695 2.329a9.593 9.593 0 0 1-.965-7.329l49.605-185.123c5.971-22.286 4.438-45.449-4.318-65.226-12.372-27.939 18.043-91.096 49.825-91.096 40.192 0 37.193 86.792 9.505 106.994-16.83 12.28-30.196 31.35-36.352 54.326L34.001 430.715zm219.475 2.889c-106.027 0-183.106-106.507-144.646-208.69 9.212-14.513 18.985-20.615 22.047-23.154.051-.043.1-.089.151-.132 11.249-9.415 17.967-24.913 21.411-39.244 63.323-54.939 158.097-49.137 214.34 11.841l9.335 34.837c4.812 17.956 19.25 20.705 24.828 24.027a153.905 153.905 0 0 1 7.014 46.036c-.002 85.181-69.301 154.479-154.48 154.479z" fill="#000000" opacity="1" data-original="#000000" class=""></path></g></svg>