<svg xmlns="http://www.w3.org/2000/svg" version="1.1" xmlns:xlink="http://www.w3.org/1999/xlink" width="512" height="512" x="0" y="0" viewBox="0 0 512 512" style="enable-background:new 0 0 512 512" xml:space="preserve" class=""><g><path d="M272.209 166.73a7.494 7.494 0 0 0-8.629 6.169 7.501 7.501 0 0 0 6.169 8.629c47.901 7.959 82.67 49.005 82.67 97.598 0 54.557-44.385 98.942-98.943 98.942-54.556 0-98.941-44.385-98.941-98.942 0-48.594 34.769-89.639 82.67-97.598a7.5 7.5 0 0 0 6.169-8.629 7.5 7.5 0 0 0-8.629-6.169c-26.29 4.367-50.382 17.999-67.836 38.384-63.121 73.715-10.42 187.955 86.566 187.955 62.829 0 113.944-51.114 113.944-113.943.002-56.295-41.143-103.413-95.21-112.396z" fill="#009688" opacity="1" data-original="#000000"></path><path d="m511.167 421.843-34.071-127.156a7.497 7.497 0 0 0-9.187-5.303 7.5 7.5 0 0 0-5.303 9.187l34.071 127.155a9.583 9.583 0 0 1-1.082 7.528c-4.494 7.375-15.428 5.49-17.703-2.996L428.628 246.4c-2.672-9.972-8.876-18.502-17.037-24.266-9.347-6.599-17.929-5.545-20.987-16.953l-5.411-20.199 69.005-18.489 5.497 20.515c1.349 5.036.254 10.346-2.929 14.202-9.713 11.771-12.996 27.061-9.007 41.949l5.469 20.409a7.498 7.498 0 0 0 9.187 5.303 7.5 7.5 0 0 0 5.303-9.187l-5.469-20.408c-2.717-10.143-.498-20.536 6.087-28.519 6.264-7.59 8.45-17.919 5.848-27.632l-31.727-118.4a7.499 7.499 0 0 0-9.187-5.303 7.5 7.5 0 0 0-5.303 9.187l22.347 83.395-13.343 3.575-22.346-83.395a7.496 7.496 0 0 0-9.187-5.303 7.5 7.5 0 0 0-5.303 9.187l22.346 83.395-13.343 3.575-22.346-83.398a7.498 7.498 0 0 0-9.187-5.303 7.5 7.5 0 0 0-5.303 9.187l22.346 83.394-11.591 3.105a173.048 173.048 0 0 0-2.726-3.167l-21.372-79.76a7.498 7.498 0 0 0-9.187-5.303 7.5 7.5 0 0 0-5.303 9.187l14.973 55.882c-56.803-45.844-140.551-51.158-203.844-6.029 4.077-69.851-48.341-93.327-86.036-49.281-19.796 23.132-34.087 64.076-22.656 89.89 7.372 16.653 8.633 36.281 3.545 55.269L.851 421.833a24.498 24.498 0 0 0 2.463 18.712c10.908 18.889 39.478 15.316 45.176-5.946l36.496-136.207c.117.996.222 1.992.356 2.989 7.292 54.039 40.619 101.326 87.436 126.827 110.612 60.247 247.271-18.593 250.128-145.204l40.497 151.136c5.745 21.442 33.756 25.383 45.003 6.916a24.765 24.765 0 0 0 2.761-19.213zM83.605 245.59 34.001 430.715c-2.236 8.342-13.43 9.718-17.695 2.329a9.593 9.593 0 0 1-.965-7.329l49.605-185.123c5.971-22.286 4.438-45.449-4.318-65.226-12.372-27.939 18.043-91.096 49.825-91.096 40.192 0 37.193 86.792 9.505 106.994-16.832 12.28-30.198 31.351-36.353 54.326zm169.871 188.014c-106.027 0-183.106-106.507-144.646-208.69 9.212-14.513 18.985-20.615 22.047-23.154.051-.043.1-.089.151-.132 11.249-9.415 17.967-24.913 21.411-39.244 63.323-54.939 158.097-49.137 214.341 11.841l9.335 34.837c4.812 17.956 19.25 20.706 24.828 24.027 4.654 14.873 7.013 30.347 7.013 46.036-.002 85.181-69.301 154.479-154.48 154.479z" fill="#009688" opacity="1" data-original="#000000"></path></g></svg>