<svg xmlns="http://www.w3.org/2000/svg" version="1.1" xmlns:xlink="http://www.w3.org/1999/xlink" width="512" height="512" x="0" y="0" viewBox="0 0 512.064 512.064" style="enable-background:new 0 0 512 512" xml:space="preserve"><g><path d="M92.131 246.868C41.33 246.868 0 288.198 0 339c0 25.683 14.043 56.703 41.74 92.199 19.782 25.352 39.332 43.685 40.155 44.453l10.237 9.558 10.237-9.558c.823-.768 20.373-19.101 40.155-44.453 27.696-35.496 41.74-66.516 41.74-92.199-.001-50.802-41.331-92.132-92.133-92.132zm0 121.938c-16.435 0-29.806-13.371-29.806-29.806s13.371-29.806 29.806-29.806 29.806 13.371 29.806 29.806-13.371 29.806-29.806 29.806zM419.932 26.854c-50.801 0-92.131 41.33-92.131 92.131 0 25.683 14.043 56.703 41.739 92.199 19.781 25.352 39.332 43.685 40.154 44.453l10.237 9.558 10.236-9.558c.823-.768 20.374-19.101 40.155-44.453 27.697-35.496 41.74-66.516 41.74-92.199.002-50.8-41.328-92.131-92.13-92.131zm0 121.938c-16.435 0-29.806-13.371-29.806-29.806s13.371-29.806 29.806-29.806c16.436 0 29.807 13.371 29.807 29.806s-13.371 29.806-29.807 29.806z" fill="#009688" opacity="1" data-original="#000000"></path><path d="M364.929 479.688H152.135v-30h212.794c22.058 0 40.003-17.945 40.003-40.003s-17.945-40.003-40.003-40.003h-83.896c-38.6 0-70.004-31.403-70.004-70.003s31.404-70.003 70.004-70.003h78.895v30h-78.895c-22.059 0-40.004 17.945-40.004 40.003s17.945 40.003 40.004 40.003h83.896c38.6 0 70.003 31.403 70.003 70.003s-31.403 70.003-70.003 70.003z" fill="#009688" opacity="1" data-original="#000000"></path></g></svg>