<svg xmlns="http://www.w3.org/2000/svg" version="1.1" xmlns:xlink="http://www.w3.org/1999/xlink" width="512" height="512" x="0" y="0" viewBox="0 0 48 48" style="enable-background:new 0 0 512 512" xml:space="preserve" class=""><g><circle cx="24" cy="24" r="21" fill="#4dd0e1" opacity="1" data-original="#eaeff0" class=""></circle><circle cx="24" cy="24" r="14" fill="#4dd0e1" opacity="1" data-original="#d9e1e2" class=""></circle><path fill="#ff5252" d="M27 25a5 5 0 0 0 3.865 4.865l-1.019 14.293a20.861 20.861 0 0 0 5.147-2.29l-.858-12A5 5 0 0 0 38 25V15H27z" opacity="1" data-original="#8fa5a5" class=""></path><path fill="#ff5252" d="M37.72 26.641A8.728 8.728 0 0 1 27 21.143V25a5 5 0 0 0 3.865 4.865l-1.019 14.293a20.861 20.861 0 0 0 5.147-2.29l-.858-12a5.005 5.005 0 0 0 3.585-3.227z" opacity="1" data-original="#7b8c8c" class=""></path><path fill="#ff5252" d="M15.5 14c-5 0-6.5 7.41-6.5 11a6.5 6.5 0 0 0 4.765 6.26l-.758 10.608a20.861 20.861 0 0 0 5.147 2.29l-.919-12.9A6.5 6.5 0 0 0 22 25c0-3.59-1.5-11-6.5-11z" opacity="1" data-original="#8fa5a5" class=""></path><path fill="#ff5252" d="M15.5 14c-5 0-6.5 7.41-6.5 11a6.5 6.5 0 0 0 4.765 6.26l-.758 10.608a20.861 20.861 0 0 0 5.147 2.29l-.919-12.9A6.5 6.5 0 0 0 22 25c0-3.59-1.5-11-6.5-11z" opacity="1" data-original="#8fa5a5" class=""></path><path fill="#ff5252" d="M21.88 26.2A8.732 8.732 0 0 1 9.7 20.1 19.225 19.225 0 0 0 9 25a6.5 6.5 0 0 0 4.765 6.26l-.758 10.608a20.861 20.861 0 0 0 5.147 2.29l-.919-12.9A6.5 6.5 0 0 0 21.88 26.2z" opacity="1" data-original="#7b8c8c" class=""></path><path d="M24 46a21.889 21.889 0 0 1-6.124-.865 1 1 0 0 1-.718-.889l-.92-12.915a1 1 0 0 1 .731-1.035A5.512 5.512 0 0 0 21 25c0-3.263-1.345-10-5.5-10S10 21.737 10 25a5.512 5.512 0 0 0 4.031 5.3 1 1 0 0 1 .731 1.035L14 41.966a1 1 0 0 1-1.522.781A22 22 0 1 1 46 24a21.87 21.87 0 0 1-10.48 18.747 1 1 0 0 1-1.52-.781l-.86-12.029a1 1 0 0 1 .77-1.046A3.978 3.978 0 0 0 37 25V15a1 1 0 0 1 2 0v10a5.966 5.966 0 0 1-3.812 5.584l.681 9.518A20 20 0 1 0 4 24a19.863 19.863 0 0 0 8.131 16.1l.581-8.144A7.519 7.519 0 0 1 8 25c0-4.64 2.036-12 7.5-12S23 20.36 23 25a7.52 7.52 0 0 1-4.712 6.958L19.1 43.4a20.235 20.235 0 0 0 9.794 0l.915-12.812A5.966 5.966 0 0 1 26 25V15a1 1 0 0 1 2 0v10a3.978 3.978 0 0 0 3.092 3.891 1 1 0 0 1 .77 1.046l-1.02 14.309a1 1 0 0 1-.718.889A21.889 21.889 0 0 1 24 46z" fill="#000000" opacity="1" data-original="#000000" class=""></path><path d="M34.25 22a1 1 0 0 1-1-1v-6a1 1 0 0 1 2 0v6a1 1 0 0 1-1 1zM30.75 22a1 1 0 0 1-1-1v-6a1 1 0 0 1 2 0v6a1 1 0 0 1-1 1z" fill="#000000" opacity="1" data-original="#000000" class=""></path></g></svg>