<svg xmlns="http://www.w3.org/2000/svg" version="1.1" xmlns:xlink="http://www.w3.org/1999/xlink" width="512" height="512" x="0" y="0" viewBox="0 0 471.94 471.94" style="enable-background:new 0 0 512 512" xml:space="preserve"><g><switch><g><path d="m359.52 339.51 52.92 52.93c37-41.68 59.5-96.49 59.5-156.47C471.94 105.85 366.09 0 235.97 0 175.99 0 121.18 22.5 79.5 59.5l79.96 79.95a7.013 7.013 0 0 1 0 9.92 6.996 6.996 0 0 1-4.96 2.05c-1.8 0-3.59-.68-4.96-2.05L69.28 69.11C26.5 111.84 0 170.87 0 235.97c0 130.12 105.85 235.97 235.97 235.97 65.1 0 124.13-26.5 166.86-69.28l-53.23-53.23a7.013 7.013 0 0 1 0-9.92 7.031 7.031 0 0 1 9.92 0zm-38.49 19.69c-12.38 11.59-27.72 18.02-41.79 21.54-14.07 3.53-26.86 4.15-34.15 4.15-.77 0-1.46-.01-2.11-.02v48.84c0 3.87-3.14 7.01-7.01 7.01s-7.01-3.14-7.01-7.01v-48.84c-.65.01-1.34.02-2.11.02-14.58 0-51.18-2.5-75.94-25.69-31.07-29.07-30.91-78.35-30.88-80.43a7.014 7.014 0 0 1 6.47-6.92c.1-.01 2.47-.19 6.36-.19 14.58 0 51.18 2.5 75.95 25.69 9.16 8.58 15.61 18.92 20.15 29.29v-51.67c-.65.01-1.34.02-2.11.02-14.58 0-51.18-2.51-75.94-25.69-31.07-29.08-30.91-78.35-30.88-80.44a7.02 7.02 0 0 1 6.47-6.92c.1 0 2.47-.18 6.36-.18 14.58 0 51.18 2.5 75.95 25.68 9.16 8.59 15.61 18.93 20.15 29.3v-31.93c-9.47-9.52-34.8-38.25-35.35-73.58-.66-42.55 34.9-76.66 36.42-78.09a7.01 7.01 0 0 1 9.47-.15c1.56 1.38 38.17 34.37 38.83 76.92.6 38.99-29.19 70.87-35.35 77.04v29.79c4.54-10.37 10.99-20.71 20.16-29.3 24.76-23.18 61.36-25.68 75.94-25.68 3.89 0 6.26.18 6.36.18 3.62.28 6.44 3.29 6.47 6.92.03 2.09.19 51.36-30.88 80.44-12.38 11.59-27.72 18.01-41.79 21.54-14.07 3.52-26.86 4.15-34.15 4.15-.77 0-1.46-.01-2.11-.02v51.67c4.54-10.37 10.99-20.71 20.16-29.29 24.76-23.19 61.36-25.69 75.94-25.69 3.89 0 6.26.18 6.36.19 3.62.28 6.44 3.28 6.47 6.92.03 2.08.19 51.36-30.88 80.43z" fill="#009688" opacity="1" data-original="#000000"></path><path d="M225.33 370.85c-13.79-.17-44.51-2.86-64.84-21.89-20.29-18.99-25.01-49.71-26.11-63.26 13.79.17 44.51 2.86 64.84 21.89 20.29 19 25.01 49.71 26.11 63.26zM337.56 285.7c-1.1 13.55-5.82 44.27-26.11 63.26-20.34 19.04-51.07 21.72-64.85 21.89 1.07-13.53 5.75-44.19 26.12-63.26 20.33-19.03 51.05-21.72 64.84-21.89zM337.56 175.8c-1.1 13.55-5.82 44.26-26.11 63.26-20.34 19.03-51.07 21.72-64.85 21.89 1.07-13.53 5.75-44.2 26.12-63.26 20.33-19.03 51.05-21.72 64.84-21.89zM225.33 260.95c-13.79-.18-44.51-2.86-64.84-21.89-20.29-19-25.01-49.72-26.11-63.26 13.79.17 44.51 2.86 64.84 21.89 20.29 18.99 25.01 49.71 26.11 63.26zM264.3 110.13c.43 27.78-18.37 52.5-27.36 62.71-9.31-9.92-28.87-34.05-29.3-61.83-.43-27.8 18.39-52.53 27.37-62.73 9.31 9.9 28.86 33.96 29.29 61.85z" fill="#009688" opacity="1" data-original="#000000"></path></g></switch></g></svg>