<svg xmlns="http://www.w3.org/2000/svg" version="1.1" xmlns:xlink="http://www.w3.org/1999/xlink" width="512" height="512" x="0" y="0" viewBox="0 0 128 128" style="enable-background:new 0 0 512 512" xml:space="preserve" class=""><g transform="matrix(1,0,0,1,0,0)"><path d="m44.98 102.565 7.138 2.561-.821 2.289-4.292-1.54-.632 1.763 4.036 1.447-.821 2.29-4.036-1.448-1.366 3.81-2.847-1.02zM54.252 105.812a26.786 26.786 0 0 1 3.81.187 6.53 6.53 0 0 1 3.722 1.27 2.769 2.769 0 0 1 .849 2.479 2.847 2.847 0 0 1-2.197 2.361l-.007.064a2.858 2.858 0 0 1 1.202 2.05c.242 1.139.432 2.754.592 3.19l-3.053-.342a12.62 12.62 0 0 1-.552-2.542c-.19-1.325-.59-1.628-1.592-1.74l-.54-.06-.448 3.99-2.973-.334zm2.472 4.802.89.1c1.176.132 1.929-.267 2.02-1.078.092-.81-.466-1.292-1.484-1.406a6.623 6.623 0 0 0-1.152-.065zM73.26 112.148l-4.353.519.218 1.826 4.86-.579.287 2.415-7.862.936-1.275-10.706 7.625-.908.287 2.414-4.622.55.194 1.637 4.353-.519zM84.17 108.746l-4.127 1.476.62 1.732 4.607-1.649.82 2.29-7.455 2.666-3.631-10.151 7.23-2.586.818 2.29-4.382 1.567.555 1.552 4.126-1.476zM42.51 21.465a14.5 14.5 0 0 1-3.067 2.919c-1.958 1.332-3.618 1.765-5.058 1.526a5.013 5.013 0 0 1-3.394-2.2c-2.097-3.083-.758-6.375 2.417-8.536a9.03 9.03 0 0 1 3.27-1.509l.803 2.318a7.333 7.333 0 0 0-2.784 1.256c-1.56 1.062-2.387 2.748-1.226 4.454 1.08 1.588 2.982 1.823 4.702.653a4.135 4.135 0 0 0 .862-.723l-.98-1.442-1.376.936-1.306-1.918 3.823-2.602zM41.192 10.993l2.841-1.038 2.834 7.755 4.374-1.598.868 2.374-7.214 2.637zM55.136 7.022l.67 5.82c.194 1.685.94 2.695 2.306 2.537 1.367-.157 1.872-1.23 1.67-2.995l-.67-5.82 3.004-.345.661 5.74c.403 3.497-1.265 5.381-4.524 5.756-3.07.354-5.045-.997-5.47-4.686l-.652-5.66zM69.198 9.167l-3.012-.409.332-2.441 9.084 1.233-.332 2.441-3.076-.417-1.118 8.244-2.997-.407zM84.34 17.419l-4.098-1.56-.654 1.72 4.576 1.742-.865 2.273-7.403-2.818 3.836-10.078 7.178 2.732-.865 2.273-4.352-1.657-.586 1.54 4.098 1.56zM85.089 22.426l6.212-8.814 3.098 2.184-.344 3.573a30.992 30.992 0 0 1-.795 4.432l.04.027a34.645 34.645 0 0 1 2.354-3.703l1.622-2.301 2.29 1.612-6.213 8.814-2.707-1.907.46-4.04a46.054 46.054 0 0 1 .706-4.612l-.052-.037a97.425 97.425 0 0 1-2.705 4.005l-1.678 2.38z" fill="#ff5252" opacity="1" data-original="#000000" class=""></path><g fill="none" stroke="#000" stroke-linecap="round" stroke-linejoin="round" stroke-width="3"><path d="M93.078 102.152a49.952 49.952 0 0 0 8.628-72.595M25.368 29.557a49.952 49.952 0 0 0 8.628 72.595M34 90.477l10.196-8.556M85.459 52.061a10.888 10.888 0 0 0 8.487-11.704 10.883 10.883 0 0 0-9.935 2.143" fill="" opacity="1"></path><path d="M74.804 53.241a12.312 12.312 0 0 1 4.028-12.437l3.909-3.28h.002a18.527 18.527 0 0 1-.531 14.227" fill="" opacity="1"></path><path d="M76.976 60.177a12.291 12.291 0 0 0 10.583-2.588l3.909-3.28.001-.002a18.51 18.51 0 0 0-17.05-.895" fill="" opacity="1"></path><path d="M65.008 58.508a12.29 12.29 0 0 1 4.393-9.79l3.909-3.28h.002a18.527 18.527 0 0 1-.531 14.227" fill="" opacity="1"></path><path d="M67.289 68.031a12.294 12.294 0 0 0 10.839-2.529l3.908-3.28.002-.001a18.51 18.51 0 0 0-17.05-.896" fill="" opacity="1"></path><path d="M55.942 69.07A12.312 12.312 0 0 1 59.97 56.63l3.909-3.28h.002a18.527 18.527 0 0 1-.532 14.228" fill="" opacity="1"></path><path d="M57.849 75.942a12.294 12.294 0 0 0 10.848-2.526l3.908-3.28.002-.002a18.51 18.51 0 0 0-17.05-.895" fill="" opacity="1"></path><path d="M46.51 76.983a12.312 12.312 0 0 1 4.029-12.438l3.908-3.28h.003a18.527 18.527 0 0 1-.536 14.237" fill="" opacity="1"></path><path d="M41.92 79.812a12.311 12.311 0 0 0 17.346 1.518l3.908-3.28.002-.002a18.475 18.475 0 0 0-21.255 1.764z" fill="" opacity="1"></path></g></g></svg>