<svg xmlns="http://www.w3.org/2000/svg" version="1.1" xmlns:xlink="http://www.w3.org/1999/xlink" width="512" height="512" x="0" y="0" viewBox="0 0 500 500" style="enable-background:new 0 0 512 512" xml:space="preserve"><g><path d="M426.777 73.223C379.557 26.004 316.777 0 250 0S120.442 26.004 73.223 73.223C26.005 120.442 0 183.223 0 250c0 66.777 26.005 129.558 73.223 176.777C120.443 473.997 183.223 500 250 500s129.558-26.004 176.777-73.223C473.996 379.558 500 316.777 500 250c0-66.777-26.004-129.558-73.223-176.777zM250 485.973C119.885 485.972 14.028 380.114 14.028 250c0-65.1 26.5-124.127 69.278-166.862l80.261 80.261a6.991 6.991 0 0 0 4.96 2.055 7.014 7.014 0 0 0 4.96-11.974L93.532 73.527c41.677-36.994 96.49-59.5 156.467-59.5 130.116 0 235.972 105.857 235.972 235.973 0 59.978-22.505 114.79-59.499 156.467l-52.92-52.923a7.014 7.014 0 0 0-9.92 9.92l53.229 53.23C374.127 459.474 315.1 485.973 250 485.973z" fill="#ff5252" opacity="1" data-original="#000000"></path><path d="M365.945 292.797a7.015 7.015 0 0 0-6.477-6.92c-.099-.007-2.464-.185-6.356-.185-14.584 0-51.178 2.503-75.947 25.686-9.169 8.582-15.616 18.925-20.15 29.294v-51.675c.643.012 1.334.02 2.103.02h.001c14.585 0 51.178-2.504 75.945-25.686 31.065-29.077 30.902-78.355 30.88-80.438a7.015 7.015 0 0 0-6.476-6.92c-.099-.007-2.463-.185-6.355-.185-14.584 0-51.18 2.503-75.948 25.686-9.169 8.582-15.616 18.925-20.15 29.294v-29.792c6.156-6.166 35.948-38.05 35.343-77.037-.66-42.545-37.266-75.535-38.824-76.919a7.015 7.015 0 0 0-9.476.148c-1.514 1.43-37.077 35.542-36.416 78.088.55 35.338 25.88 64.063 35.344 73.582v31.93c-4.534-10.369-10.982-20.712-20.15-29.294-24.77-23.183-61.364-25.686-75.948-25.686-3.891 0-6.256.178-6.355.186a7.014 7.014 0 0 0-6.476 6.919c-.022 2.083-.186 51.36 30.88 80.438 24.768 23.183 61.362 25.686 75.946 25.686.769 0 1.46-.008 2.103-.02v51.675c-4.534-10.37-10.982-20.712-20.15-29.294-24.77-23.183-61.363-25.686-75.947-25.686-3.891 0-6.257.178-6.356.186a7.014 7.014 0 0 0-6.476 6.919c-.022 2.083-.186 51.36 30.88 80.437 24.768 23.183 61.362 25.686 75.946 25.686.769 0 1.46-.008 2.103-.02v48.836a7.014 7.014 0 1 0 14.028 0V398.9c.644.011 1.335.02 2.104.02h.001c14.585 0 51.178-2.505 75.945-25.687 31.065-29.076 30.902-78.354 30.88-80.437zm-79.194-81.081c20.329-19.028 51.046-21.716 64.836-21.89-1.096 13.552-5.816 44.268-26.11 63.263-20.336 19.036-51.065 21.718-64.847 21.89 1.072-13.53 5.75-44.196 26.121-63.263zm-112.228 41.373c-20.296-18.997-25.014-49.716-26.109-63.263 13.79.174 44.506 2.862 64.834 21.89 20.296 18.996 25.014 49.715 26.11 63.263-13.789-.174-44.506-2.861-64.835-21.89zm0 109.904c-20.296-18.997-25.014-49.716-26.109-63.263 13.788.174 44.505 2.86 64.835 21.89 20.295 18.996 25.013 49.715 26.108 63.262-13.788-.174-44.505-2.86-64.834-21.889zm74.518-300.679c9.305 9.892 28.857 33.954 29.29 61.843.432 27.783-18.37 52.504-27.363 62.713-9.306-9.925-28.868-34.05-29.3-61.833-.431-27.793 18.387-52.523 27.373-62.723zm76.437 300.679c-20.337 19.035-51.066 21.717-64.848 21.89 1.072-13.53 5.75-44.196 26.121-63.264 20.33-19.028 51.047-21.715 64.836-21.89-1.096 13.553-5.816 44.269-26.11 63.264z" fill="#ff5252" opacity="1" data-original="#000000"></path></g></svg>