<svg xmlns="http://www.w3.org/2000/svg" version="1.1" xmlns:xlink="http://www.w3.org/1999/xlink" width="512" height="512" x="0" y="0" viewBox="0 0 98 98" style="enable-background:new 0 0 512 512" xml:space="preserve" class=""><g><g fill="#000" fill-rule="evenodd"><path fill-rule="nonzero" d="M49 0c27.062 0 49 21.938 49 49S76.062 98 49 98 0 76.062 0 49 21.938 0 49 0zm0 7C25.804 7 7 25.804 7 49s18.804 42 42 42 42-18.804 42-42S72.196 7 49 7z" fill="#000000" opacity="1" data-original="#000000" class=""></path><circle cx="50" cy="26" r="4.5" stroke="#000" fill="#000000" opacity="1" data-original="#000000" class=""></circle><path fill-rule="nonzero" d="M60.919 66.372c4.375.212 4.375 6.778 0 6.99l-19.802.005a3.5 3.5 0 0 1-.192-6.995l6.574-.006V43.119H43a3.5 3.5 0 0 1-3.495-3.307l-.005-.192a3.5 3.5 0 0 1 3.308-3.495L43 36.12h8a3.5 3.5 0 0 1 3.495 3.308l.005.192-.001 26.746z" fill="#000000" opacity="1" data-original="#000000" class=""></path></g></g></svg>