<svg id="Capa_1" enable-background="new 0 0 512 512" height="512" viewBox="0 0 512 512" width="512" xmlns="http://www.w3.org/2000/svg"><g><g><path d="m439.746 223.809c-.669-6.222-2.741-12.389-6.322-18.031l-11.261-17.74c-5.028-7.921-16.587-7.921-21.616 0l-11.261 17.74c-10.594 16.689-7.975 37.98 5.09 51.646 3.651-5.459 8.84-9.643 13.769-13.971 4.393-3.857 8.743-7.718 13.814-10.448 3.002-5.253 18.453-3.011 17.787-9.196z" fill="#41c47d"/></g><g><path d="m393.999 252.752-1.023 1.624c-.184.292-.349.593-.518.891 2.762 3.32 6.078 6.274 9.93 8.702l1.086.684c4.816 3.035 10.947 3.035 15.764 0l1.086-.684c14.068-8.865 21.082-24.678 19.417-40.16-7.173.869-14.173 2.962-20.667 6.205-2.946 1.471-5.788 16.017-8.495 17.955-2.438 1.746-4.766-9.16-6.961-7.046-3.598 3.464-6.838 7.414-9.619 11.829z" fill="#3cb372"/></g><g><path d="m409.697 245.369 9.385-15.336v-13.27c0-4.267-3.459-7.726-7.726-7.726s-7.726 3.459-7.726 7.726v24.174z" fill="#3cb372"/></g><path d="m403.629 264.743c4.741 2.908 10.711 2.908 15.453 0v-34.711c-5.6 2.797-10.821 6.444-15.453 10.904z" fill="#32a563"/><g><path d="m412.865 258.281.684-1.086c12.427-19.721 38.511-25.594 58.191-13.102l17.74 11.261c7.921 5.028 7.921 16.587 0 21.616l-17.74 11.261c-19.68 12.492-45.764 6.62-58.191-13.102l-.684-1.086c-3.035-4.815-3.035-10.946 0-15.762z" fill="#41c47d"/></g><g><path d="m460.754 273.889h-50.166c-4.267 0-7.726-3.459-7.726-7.726s3.459-7.726 7.726-7.726h50.166c4.267 0 7.726 3.459 7.726 7.726.001 4.267-3.458 7.726-7.726 7.726z" fill="#3cb372"/></g><g><path d="m226.691 398.124c.271-2.925.417-5.888.417-8.884 0-53.23-43.151-96.381-96.381-96.381s-96.381 43.151-96.381 96.381c0 2.997.145 5.959.417 8.884z" fill="#ffdf74"/></g><g><path d="m75.342 398.124c-.473-2.938-.724-5.906-.724-8.884 0-30.939 25.171-56.11 56.11-56.11s56.11 25.171 56.11 56.11c0 2.979-.251 5.947-.724 8.884h15.61c.37-2.945.567-5.91.567-8.884 0-39.46-32.103-71.562-71.562-71.562s-71.562 32.103-71.562 71.562c0 2.974.197 5.94.567 8.884z" fill="#f7ce5c"/></g><g><path d="m109.011 398.124c-1.152-2.797-1.757-5.796-1.757-8.884 0-12.944 10.53-23.474 23.473-23.474s23.473 10.53 23.473 23.474c0 3.089-.605 6.087-1.757 8.884h16.186c.674-2.885 1.023-5.859 1.023-8.884 0-21.464-17.462-38.927-38.926-38.927s-38.926 17.462-38.926 38.927c0 3.026.349 6 1.023 8.884z" fill="#f7ce5c"/></g><g><path d="m351.964 398.124c.272-2.925.417-5.888.417-8.884 0-53.23-43.151-96.381-96.381-96.381s-96.381 43.151-96.381 96.381c0 2.997.145 5.959.417 8.884z" fill="#efc04b"/></g><g><path d="m200.615 398.124c-.473-2.938-.724-5.906-.724-8.884 0-30.939 25.171-56.11 56.11-56.11s56.11 25.171 56.11 56.11c0 2.979-.251 5.947-.724 8.884h15.61c.37-2.945.567-5.91.567-8.884 0-39.46-32.103-71.562-71.562-71.562s-71.562 32.103-71.562 71.562c0 2.974.197 5.94.567 8.884z" fill="#f7ce5c"/></g><g><path d="m234.284 398.124c-1.152-2.797-1.757-5.796-1.757-8.884 0-12.944 10.53-23.474 23.473-23.474s23.473 10.53 23.473 23.474c0 3.089-.605 6.087-1.757 8.884h16.186c.674-2.885 1.023-5.859 1.023-8.884 0-21.464-17.462-38.927-38.926-38.927s-38.926 17.462-38.926 38.927c0 3.026.349 6 1.023 8.884z" fill="#f7ce5c"/></g><g><path d="m477.237 398.124c.272-2.925.417-5.888.417-8.884 0-53.23-43.151-96.381-96.381-96.381s-96.381 43.151-96.381 96.381c0 2.997.145 5.959.417 8.884z" fill="#ffdf74"/></g><g><path d="m325.888 398.124c-.473-2.938-.724-5.906-.724-8.884 0-30.939 25.171-56.11 56.11-56.11s56.11 25.171 56.11 56.11c0 2.979-.251 5.947-.724 8.884h15.61c.369-2.944.567-5.91.567-8.884 0-39.46-32.103-71.562-71.562-71.562s-71.562 32.103-71.562 71.562c0 2.974.197 5.94.567 8.884z" fill="#f7ce5c"/></g><g><path d="m359.557 398.124c-1.152-2.797-1.757-5.796-1.757-8.884 0-12.944 10.53-23.474 23.473-23.474s23.473 10.53 23.473 23.474c0 3.089-.605 6.087-1.757 8.884h16.186c.674-2.885 1.023-5.859 1.023-8.884 0-21.464-17.462-38.927-38.926-38.927s-38.926 17.462-38.926 38.927c0 3.026.349 6 1.023 8.884z" fill="#f7ce5c"/></g><g><g><path d="m435.067 497.693 13.082-18.721-354.553-13.845-1.795 25.713c6.265 8.965 27.989 21.16 38.926 21.16h276.89c10.937 0 21.185-5.341 27.45-14.307z" fill="#d4d4e8"/></g><g><path d="m470.806 446.548h-429.612l35.739 51.145c6.265 8.966 16.513 14.307 27.45 14.307h32.636c-10.937 0-21.186-5.341-27.45-14.307l-13.082-18.721h351.662z" fill="#c6c6e0"/></g><g><path d="m475.944 457.674h-413.006c-19.913 0-45.246-16.143-45.246-36.056v-17.859c0-8.339 6.605-15.1 14.944-15.1h464.264c8.339 0 15.099 6.76 15.099 15.1v17.859c.001 19.913-16.142 36.056-36.055 36.056z" fill="#e9e9ff"/></g><g><path d="m32.636 421.618v-32.958h-17.536c-8.339 0-15.1 6.76-15.1 15.1v17.859c0 19.913 16.143 36.056 36.056 36.056h32.636c-19.913-.001-36.056-16.144-36.056-36.057z" fill="#d4d4e8"/></g></g><g><path d="m410.056 249.115-58.745-25.837c-26.926-11.843-55.507-18.435-84.275-19.777-36.122-1.685-69.292 10.515-103.1 25.384l-57.051 27.011c-9.279 4.081-5.144 6.366-5.192 16.503-.066 14.029 17.046 25.416 31.06 25.416h23c7.472 0 32.351 6.058 32.351 13.53v13.038c0 13.961-6.498 20.056 7.464 20.056l.278-.093c4.253 0 6.977 4.266 10.494 2.41 8.029-4.235 13.502-12.665 13.502-22.374v-8.284c0-7.472 6.058-13.53 13.53-13.53h58.997c7.472 0 32.029 6.058 32.029 13.53v18.698c0 12.836-7.056 19.161 5.779 19.161 4.298 0 7.287 2.913 10.741.879 6.86-4.04 11.463-11.503 11.463-20.04v-23.452c0-7.472 6.058-13.53 13.53-13.53h34.504c14.014 0 25.367-11.394 25.301-25.423-.048-10.135-6.38-19.194-15.66-23.276z" fill="#ff415b"/></g><g><path d="m109.835 272.394c.048-10.137 6.38-19.197 15.66-23.278l58.745-25.837c26.695-11.741 55.017-18.317 83.536-19.736-36.364-1.81-73.048 4.766-107.086 19.736l-58.745 25.837c-9.279 4.081-15.612 13.141-15.66 23.278-.066 14.029 11.287 25.423 25.301 25.423h23.55c-14.015-.001-25.368-11.394-25.301-25.423z" fill="#ef2b55"/></g><g><path d="m192.833 324.385v-13.038c0-7.472-6.058-13.53-13.53-13.53h-23.55c7.472 0 13.53 6.058 13.53 13.53v13.038c0 13.961 11.318 25.279 25.279 25.279 4.253 0 8.258-1.055 11.775-2.91-8.028-4.235-13.504-12.661-13.504-22.369z" fill="#ef2b55"/></g><g><path d="m329.449 334.799v-18.698c0-7.472-6.057-13.53-13.53-13.53h-23.55c7.472 0 13.53 6.058 13.53 13.53v18.698c0 12.836 10.405 23.241 23.241 23.241 4.298 0 8.321-1.172 11.775-3.206-6.86-4.041-11.466-11.498-11.466-20.035z" fill="#ef2b55"/></g><g><path d="m130.727 259.513c-14.69 0-21.678-9.586-21.678-24.276 0-14.69 7.191-25.265 21.881-25.265 2.588 0 4.887-.964 7.253-.275 11.061 3.224 19.144 13.438 19.144 25.54 0 12.048-8.01 22.225-18.995 25.496-2.41.718-4.963-1.22-7.605-1.22z" fill="#fff3d7"/></g><g><path d="m119.333 235.237c0-12.048 8.012-22.219 18.996-25.491-2.41-.718-4.96-1.109-7.603-1.109-14.69 0-26.599 11.909-26.599 26.599s11.909 26.599 26.599 26.599c2.643 0 5.193-.391 7.603-1.109-10.984-3.27-18.996-13.441-18.996-25.489z" fill="#f7e1b5"/></g><g><path d="m501.698 56.557h-104.063c-10.621 0-20.921-3.647-29.175-10.332l-7.12-5.766c-8.254-6.684-18.553-10.331-29.175-10.331h-34.099v89.945h34.099c10.621 0 20.921-3.647 29.175-10.331l7.12-5.766c8.254-6.684 18.553-10.331 29.175-10.331h104.063c5.69 0 10.302-4.612 10.302-10.302v-16.484c0-5.69-4.612-10.302-10.302-10.302z" fill="#e9e9ff"/></g><g><path d="m327.301 82.365h-29.235v15.453h29.235c4.267 0 7.726-3.459 7.726-7.726.001-4.268-3.459-7.727-7.726-7.727z" fill="#d4d4e8"/></g><g><path d="m327.301 52.383h-29.235v15.453h29.235c4.267 0 7.726-3.459 7.726-7.726s-3.459-7.727-7.726-7.727z" fill="#d4d4e8"/></g><path d="m288.44 5.331c-8.91 0-16.133 1.892-16.133 10.801 0-6.362-3.682-11.863-9.032-14.49-2.143-1.052-4.631 3.426-7.179 3.426-8.91 0-16.055 2.154-16.055 11.064 0-6.362-3.682-11.863-9.032-14.49-2.143-1.052-3.735 1.278-6.283 1.278l-.556.139c-8.91 0-7.695 4.163-7.695 13.073l-.464 211.373c0 8.91-.473 13.372 8.437 13.372 2.548 0 4.418 2.17 6.561 1.118 5.349-2.627 9.032-8.128 9.032-14.49v-97.208c0 8.91 7.238 11.528 16.147 11.528 2.548 0 4.943 4.014 7.086 2.962 5.349-2.627 9.032-8.128 9.032-14.49 0 8.91 7.423 11.528 16.333 11.528 2.548 0 4.758 4.014 6.901 2.962 5.349-2.627 9.031-8.128 9.031-14.49v-114.164c0-6.362-3.682-11.863-9.032-14.49-2.141-1.052-4.551 3.688-7.099 3.688z" fill="#ffdf74"/><g><path d="m221.962 227.505v-211.372c0-6.361 3.691-11.846 9.04-14.473-2.143-1.053-4.544-1.66-7.093-1.66-8.91 0-16.133 7.223-16.133 16.133v211.373c0 8.91 7.223 16.133 16.133 16.133 2.549 0 4.95-.607 7.093-1.659-5.349-2.628-9.04-8.114-9.04-14.475z" fill="#f7ce5c"/></g><g><path d="m254.228 130.297v-114.164c0-6.361 3.691-11.846 9.04-14.473-2.143-1.053-4.545-1.66-7.093-1.66-8.91 0-16.133 7.223-16.133 16.133v114.165c0 8.91 7.223 16.133 16.133 16.133 2.549 0 4.95-.607 7.093-1.66-5.349-2.627-9.04-8.113-9.04-14.474z" fill="#f7ce5c"/></g><g><path d="m286.493 130.297v-114.164c0-6.361 3.691-11.846 9.04-14.473-2.143-1.053-4.545-1.66-7.093-1.66-8.91 0-16.133 7.223-16.133 16.133v114.165c0 8.91 7.223 16.133 16.133 16.133 2.549 0 4.95-.607 7.093-1.66-5.349-2.627-9.04-8.113-9.04-14.474z" fill="#f7ce5c"/></g><g><path d="m271.628 240.691h-.508c-4.65 0-8.42-3.77-8.42-8.42v-.508c0-4.65 3.77-8.42 8.42-8.42h.508c4.65 0 8.42 3.77 8.42 8.42v.508c0 4.651-3.77 8.42-8.42 8.42z" fill="#ef2b55"/></g><g><path d="m304.827 283.69h-.508c-4.65 0-8.42-3.77-8.42-8.42v-.508c0-4.65 3.77-8.42 8.42-8.42h.508c4.65 0 8.42 3.77 8.42 8.42v.508c0 4.651-3.77 8.42-8.42 8.42z" fill="#ef2b55"/></g><g><path d="m189.974 283.69h-.508c-4.65 0-8.42-3.77-8.42-8.42v-.508c0-4.65 3.77-8.42 8.42-8.42h.508c4.65 0 8.42 3.77 8.42 8.42v.508c0 4.651-3.77 8.42-8.42 8.42z" fill="#ef2b55"/></g><g><path d="m368.359 275.016h-.508c-4.65 0-8.42-3.77-8.42-8.42v-.508c0-4.65 3.77-8.42 8.42-8.42h.508c4.65 0 8.42 3.77 8.42 8.42v.508c-.001 4.651-3.77 8.42-8.42 8.42z" fill="#ef2b55"/></g><g><path d="m329.305 244.418c-14.69 0-21.678-9.586-21.678-24.276 0-14.69 7.191-25.265 21.881-25.265 2.588 0 4.887-.964 7.253-.275 11.061 3.224 19.144 13.438 19.144 25.54 0 12.048-8.01 22.225-18.995 25.496-2.41.718-4.963-1.22-7.605-1.22z" fill="#fff3d7"/></g><g><path d="m317.911 220.142c0-12.048 8.012-22.219 18.996-25.491-2.41-.718-4.96-1.109-7.603-1.109-14.69 0-26.599 11.909-26.599 26.599s11.909 26.599 26.599 26.599c2.643 0 5.193-.391 7.603-1.109-10.984-3.27-18.996-13.441-18.996-25.489z" fill="#f7e1b5"/></g><g><path d="m412.473 331.517c-14.69 0-21.678-9.586-21.678-24.276 0-14.69 7.191-25.265 21.881-25.265 2.588 0 4.887-.964 7.253-.275 11.061 3.224 19.144 13.438 19.144 25.54 0 12.048-8.01 22.225-18.995 25.496-2.41.718-4.963-1.22-7.605-1.22z" fill="#fff3d7"/></g><g><path d="m401.079 307.241c0-12.048 8.012-22.219 18.996-25.491-2.41-.718-4.96-1.109-7.603-1.109-14.69 0-26.599 11.909-26.599 26.599s11.909 26.599 26.599 26.599c2.643 0 5.193-.391 7.603-1.109-10.984-3.27-18.996-13.441-18.996-25.489z" fill="#f7e1b5"/></g></g></svg>