<svg xmlns="http://www.w3.org/2000/svg" version="1.1" xmlns:xlink="http://www.w3.org/1999/xlink" width="512" height="512" x="0" y="0" viewBox="0 0 64 64" style="enable-background:new 0 0 512 512" xml:space="preserve" class=""><g><path d="M32 2A24.027 24.027 0 0 0 8 26c0 18.294 22.45 35.098 23.406 35.804a1 1 0 0 0 1.188 0C33.55 61.098 56 44.294 56 26A24.027 24.027 0 0 0 32 2zm0 42a18 18 0 1 1 18-18 18.02 18.02 0 0 1-18 18zm11-23a6.142 6.142 0 0 1-3 5.495V35a2 2 0 0 1-4 0v-8.505A6.142 6.142 0 0 1 33 21c0-3.309 2.243-6 5-6s5 2.691 5 6zm-12-5v8a3.003 3.003 0 0 1-3 3v8a2 2 0 0 1-4 0v-8a3.003 3.003 0 0 1-3-3v-8a1 1 0 0 1 2 0v5h2v-5a1 1 0 0 1 2 0v5h2v-5a1 1 0 0 1 2 0z" data-name="01-Restaurant" fill="#009688" opacity="1" data-original="#000000"></path></g></svg>