<svg id="Layer_1" enable-background="new 0 0 461.939 461.939" height="512" viewBox="0 0 461.939 461.939" width="512" xmlns="http://www.w3.org/2000/svg"><g><path d="m461.938 322.727c-40.266 1.317-440.349-5.528-461.619-5.526 0-.107-.06 6.191-.319 32.991-.168 12.726 24.301 21.982 36.472 25.99 41.058 13.535 101.709 19.859 145.105 22.278 57.894 3.235 124.691 2.11 181.248-5.323 22.208-2.915 92.402-13.466 98.401-34.813.541-1.916.367.186.712-35.597z" fill="#f5a27e"/><path d="m231.767 272.827c127.467 1.526 230.521 23.87 230.171 49.901-.35 26.038-103.971 45.9-231.438 44.374-127.476-1.526-230.53-23.863-230.181-49.901.35-26.031 103.971-45.901 231.448-44.374z" fill="#ffb48d"/><path d="m351.71 200.82c-4.22 5.85-10.1 14.12-16.72 23.45-18.9 26.61-43.87 61.85-53.41 74.16l-21.35-11.62-14.52-7.9c-5.45-2.96-8.49-8.9-8.48-15.47.11-59.19-.29-56.52 1.19-61.18 2.71-8.59 9.79-14.5 17.22-15.55 54.34-7.63 51.7-7.53 54.93-7.1 1.46.19 3.05.59 4.71 1.4.44.22-1.95-1.07 36.43 19.81z" fill="#ffebd3"/><path d="m334.99 224.27c-18.9 26.61-43.87 61.85-53.41 74.16l-21.35-11.62c.01-26.34-.1-36.77.31-41.9.67-8.49 7.37-16.02 16.22-18.1 2.79-.65-.84-.37 58.23-2.54z" fill="#ffd5b7"/><path d="m360.19 216.3-.05 26.9-.05 27.53c-.02 10.89-8.22 20.87-18.31 22.29l-50.44 7.08c-10.09 1.42-18.25-6.26-18.23-17.14l.1-54.44c0-.18 0-.36.02-.54.27-10.69 8.37-20.35 18.28-21.75l50.44-7.09c10.09-1.42 18.26 6.26 18.24 17.16z" fill="#ffd5b7"/><path d="m360.14 243.2-.05 27.53c-.02 10.89-8.22 20.87-18.31 22.29l-50.44 7.08c-10.09 1.42-18.25-6.26-18.23-17.14l.1-54.44c0-.18 0-.36.02-.54 1.13-.49 2.31-.88 3.53-1.17 2.83-.66-.94-.36 60.7-2.63 7.16-.27 14.05 3.17 17.77 9.34.44.73.07-.02 4.91 9.68z" fill="#ffc7a0"/><path d="m91.607 208.378c36.245-19.717 33.994-18.5 34.407-18.703 1.569-.773 3.064-1.145 4.445-1.329 3.047-.404 21.335 2.39 51.877 6.71 7.017.987 12.829-5.831 15.393 2.273 1.394 4.409 10.711-17.494 10.814 38.4.012 6.205-11.691 43.597-16.83 46.393l-33.881 18.431c-12.171-15.704-50.892-70.88-66.225-92.175z" fill="#ffebd3"/><path d="m165.84 285.94c.01 10.29-7.69 17.54-17.22 16.2l-25.96-3.65-21.67-3.05c-9.53-1.34-17.27-10.76-17.29-21.04l-.09-51.41c-.02-10.29 7.68-17.54 17.22-16.2l45.75 6.44 1.88.26c9.52 1.34 17.26 10.76 17.28 21.05z" fill="#ffd5b7"/><path d="m165.84 285.94c.01 10.29-7.69 17.54-17.22 16.2l-25.96-3.65c-4.26-4.89-4.02-4.73-4.58-5.77-3.39-6.17-2.96-15.13-.7-21.84.98-2.92-.26-.13 25.32-51.95.99-1.99 2.31-4.01 3.88-5.7l1.88.26c9.52 1.34 17.26 10.76 17.28 21.05z" fill="#ffc7a0"/><path d="m287.147 127.679c-38.381-20.879-35.997-19.59-36.435-19.805-1.661-.818-3.245-1.212-4.707-1.407-3.227-.428-.593-.531-54.935 7.106-7.431 1.045-14.506 6.962-17.221 15.544-1.476 4.669-1.072 1.995-1.182 61.183-.012 6.571 3.031 12.51 8.473 15.471l35.878 19.517c12.889-16.629 53.893-75.058 70.129-97.609z" fill="#ffebd3"/><path d="m277.383 126.002c10.095-1.419 18.258 6.259 18.238 17.156l-.101 54.436c-.02 10.887-8.216 20.865-18.311 22.283l-50.435 7.088c-10.087 1.418-18.25-6.261-18.229-17.148l.101-54.436c.02-10.896 8.215-20.873 18.303-22.291z" fill="#ffd5b7"/><path d="m362.949 271.168c-11.157-22.344-10.353-20.791-10.9-21.698-3.493-5.79-9.942-9.008-16.652-8.76-57.77 2.128-54.239 1.845-56.885 2.468-8.297 1.952-14.577 9.005-15.206 16.965-.445 5.633-.231 18.071-.296 53.317-.005 2.869.659 5.563 1.849 7.946l10.226 20.48c19.574-11.731 53.492-37.318 87.864-70.718z" fill="#ffebd3"/><path d="m345.622 261.189c10.609-.391 19.196 7.635 19.177 17.933l-.096 51.447c-.019 10.289-8.637 18.949-19.246 19.34l-53.046 1.954c-10.609.391-19.196-7.635-19.177-17.925l.096-51.447c.019-10.298 8.637-18.958 19.246-19.349z" fill="#ffd5b7"/><path d="m233.896 224.48c-.7-.298-14.678-2.852-62.514-11.94-5.638-1.077-10.582 4.387-13.177 9.644-25.582 51.82-24.341 49.031-25.322 51.953-2.254 6.709-2.687 15.665.7 21.84 1.034 1.888-.616-.208 27.238 31.686 1.398 1.601 3.009 2.54 4.71 2.865l62.513 11.948c3.295-9.317 8.326-116.942 5.852-117.996z" fill="#ffebd3"/><path d="m264.254 256.722c5.13 5.874 5.441 18.431.692 28.052l-23.728 48.065c-4.746 9.613-12.753 12.645-17.883 6.771l-25.649-29.369c-5.13-5.874-5.441-18.431-.696-28.044l23.728-48.065c4.75-9.621 12.757-12.653 17.887-6.779z" fill="#ffd5b7"/><path d="m279.864 66.417c-4.156-5.86-12.738-6.231-19.17-.829-2.618 2.198-4.461 5.018-5.463 7.979-.298-.714-.671-1.398-1.125-2.038-3.689-5.202-11.208-5.616-16.793-.925-4.404 3.698-6.277 9.462-5.07 14.287-2.308.183-4.688 1.126-6.768 2.874-4.217 3.542-5.839 9.201-4.259 13.678-24.447 9.833-42.908 2.387-43.963 1.942-2.865-1.23-6.186.089-7.427 2.95-1.243 2.868.075 6.202 2.943 7.445.74.321 9.634 4.039 23.206 4.039 9.759 0 21.939-1.93 35.242-8.421.206.393.431.777.69 1.143 3.537 4.987 10.746 5.385 16.1.887 1.321-1.11 2.404-2.414 3.235-3.824.079.122.146.25.231.369 3.988 5.623 12.115 6.071 18.153 1s7.699-13.74 3.711-19.363c-.194-.274-.406-.525-.619-.774 1.041-.552 2.059-1.217 3.025-2.029 6.432-5.401 8.277-14.53 4.121-20.39z" fill="#77f945"/></g></svg>