<svg xmlns="http://www.w3.org/2000/svg" version="1.1" xmlns:xlink="http://www.w3.org/1999/xlink" width="512" height="512" x="0" y="0" viewBox="0 0 512 512" style="enable-background:new 0 0 512 512" xml:space="preserve"><g><path d="M256 206.733c105.722 0 191.733-86.012 191.733-191.733 0-8.284-6.716-15-15-15C353.357 0 285.094 48.487 256 117.397 226.906 48.487 158.643 0 79.267 0c-8.284 0-15 6.716-15 15 0 105.722 86.011 191.733 191.733 191.733zM376.5 447.733c8.284 0 15-6.716 15-15v-88.367c-1.972-51.813-76.247-51.773-78.2 0v88.367c.738 19.881 29.269 19.866 30 0v-22.489h18.2v22.489c0 8.285 6.716 15 15 15zm-33.2-67.489v-35.878c.429-12.046 17.776-12.038 18.2 0v35.878zM497 305.267c-8.284 0-15 6.716-15 15v55.983l-36.243-63.426a14.999 14.999 0 0 0-16.873-7.055 14.998 14.998 0 0 0-11.15 14.497v112.467c.738 19.881 29.269 19.866 30 0V376.75l36.243 63.426c1.479 2.589 7.316 9.594 16.873 7.055A14.998 14.998 0 0 0 512 432.734V320.267c0-8.285-6.716-15-15-15zM175.667 335.267c19.881-.738 19.866-29.269 0-30h-48.2c-8.284 0-15 6.716-15 15v112.467c0 8.284 6.716 15 15 15h48.2c19.881-.738 19.866-29.269 0-30h-33.2V391.5H159.6c19.881-.738 19.866-29.269 0-30h-17.133v-26.233zM64.848 316.146l-17.71 61.987-17.711-61.987c-2.276-7.966-10.579-12.581-18.544-10.302C2.918 308.12-1.695 316.422.581 324.388l32.134 112.467c4.172 14.409 24.678 14.401 28.846 0l32.133-112.467c2.275-7.966-2.337-16.269-10.302-18.544-7.964-2.272-16.268 2.337-18.544 10.302zM272.066 363.379c8.284 0 15-6.721 15-15.005-2.168-57.12-84.08-57.087-86.233.01v56.232c2.175 57.136 84.079 57.094 86.233 0v-12.05c0-8.284-6.716-15-15-15h-14.058c-19.117.58-20.16 27.816-1.265 29.947-3.741 15.049-25.53 12.753-25.911-2.897v-56.232c.657-17.368 25.576-17.381 26.233-.01v.01c.001 8.284 6.717 14.995 15.001 14.995zM497 482H15c-19.881.738-19.866 29.269 0 30h482c19.881-.738 19.866-29.269 0-30zM15 271h482c19.881-.738 19.866-29.269 0-30H15c-19.881.738-19.866 29.269 0 30z" fill="#009688" opacity="1" data-original="#000000"></path></g></svg>