<svg xmlns="http://www.w3.org/2000/svg" version="1.1" xmlns:xlink="http://www.w3.org/1999/xlink" width="512" height="512" x="0" y="0" viewBox="0 0 511.975 511.975" style="enable-background:new 0 0 512 512" xml:space="preserve"><g><path d="M485.5 12.039c-1.44-5.632-5.888-9.952-11.456-11.424-5.696-1.504-11.616.256-15.648 4.416-.288.288-27.424 27.776-118.048 62.528-31.776 12.16-54.88 35.232-65.088 64.896-6.56 19.008-9.696 47.776 4.416 84.64 62.24-72.096 135.392-92.16 136.32-93.088-48.512 30.016-118.88 126.88-118.88 126.88-21.664 49.568-35.392 100.48-43.68 142.976C181.148 69.703 44.892 4.295 38.62 1.415c-8.064-3.616-17.536-.064-21.216 7.968-3.648 8.032-.064 17.536 7.968 21.184 1.536.672 153.856 73.984 215.168 467.872 1.216 7.808 7.968 13.536 15.808 13.536.32 0 .608 0 .896-.032 8.224-.48 14.752-7.072 15.104-15.264.064-1.632 6.016-123.68 54.944-234.88 6.56.992 13.824 1.792 22.304 1.792 36.352 0 87.36-13.184 127.712-74.56a9.03 9.03 0 0 0 .832-1.408c34.592-66.912 8.48-171.168 7.36-175.584z" fill="#009688" opacity="1" data-original="#000000"></path></g></svg>