<svg xmlns="http://www.w3.org/2000/svg" version="1.1" xmlns:xlink="http://www.w3.org/1999/xlink" width="512" height="512" x="0" y="0" viewBox="0 0 60 60" style="enable-background:new 0 0 512 512" xml:space="preserve"><g><path d="M58.363 1.356C53.47.241 41.19-1.8 32.909 3.352c-12.756 7.927-9.248 23.131-7.576 28.326a33.964 33.964 0 0 0-3.268 6.613C19.956 31.36 14.891 19.363 6.9 9.912a2.448 2.448 0 0 0-1.808-.881 3.053 3.053 0 0 0-2.3 1.026l-2.06 2.122a2.628 2.628 0 0 0-.154 3.454c8.19 10.324 15.934 28.885 17.265 41.376a3.326 3.326 0 0 0 6.54.451c1.976-8.248 5.5-18.9 8.295-22.992 2.155-.058 10.256-.568 15.21-4.938 3.3-2.914 4.154-6.01 5.849-12.179.328-1.193.69-2.509 1.109-3.97 1.333-4.652 3.192-7.171 4.524-8.471a2.1 2.1 0 0 0-1.007-3.554zm-.4 2.129a21.168 21.168 0 0 0-5.043 9.346c-.422 1.469-.785 2.791-1.115 3.99-1.64 5.968-2.388 8.691-5.244 11.21-4.978 4.392-14.034 4.445-14.388 4.445h-.013a1 1 0 0 0-.8.4C28.334 36.9 24.581 48.054 22.438 57a1.315 1.315 0 0 1-1.288 1 1.333 1.333 0 0 1-1.319-1.2c-1.364-12.81-9.3-31.834-17.686-42.408a.615.615 0 0 1 .023-.819l2.058-2.123a1.134 1.134 0 0 1 .8-.419.459.459 0 0 1 .349.174C14.724 22.263 19.952 36.86 21.02 42.2a1 1 0 0 0 .98.8 1 1 0 0 0 .98-.8 31.153 31.153 0 0 1 4.287-9.823v-.014c.006-.009.014-.015.019-.024a73.15 73.15 0 0 1 21.268-21.2 1 1 0 0 0-1.073-1.688 74.931 74.931 0 0 0-20.719 20.042c-4.334-15.26 3.5-22.143 7.2-24.443C41.616.29 53.265 2.244 57.909 3.3a.105.105 0 0 1 .091.079.1.1 0 0 1-.033.106z" fill="#ff5252" opacity="1" data-original="#000000"></path></g></svg>